<?xml version="1.0" standalone="no"?>
<!DOCTYPE svg PUBLIC "-//W3C//DTD SVG 20010904//EN"
 "http://www.w3.org/TR/2001/REC-SVG-20010904/DTD/svg10.dtd">
<svg version="1.0" xmlns="http://www.w3.org/2000/svg"
 width="1067.000000pt" height="1067.000000pt" viewBox="0 0 1067.000000 1067.000000"
 preserveAspectRatio="xMidYMid meet">

<g transform="translate(0.000000,1067.000000) scale(0.100000,-0.100000)"
fill="#000000" stroke="none">
<path d="M5585 9831 c-99 -17 -182 -43 -280 -90 -120 -57 -201 -117 -291 -214
l-66 -72 -1142 -5 -1141 -6 -85 -22 c-221 -59 -420 -195 -552 -378 -52 -70
-124 -223 -150 -319 l-23 -80 -3 -2167 -2 -2168 -178 0 c-98 0 -205 -5 -237
-11 -150 -27 -262 -131 -300 -274 -22 -85 -22 -673 0 -758 13 -50 13 -63 -1
-117 -13 -50 -15 -119 -12 -403 3 -329 4 -344 26 -399 27 -67 97 -148 158
-184 78 -46 132 -54 356 -54 l207 0 3 -282 c3 -268 5 -286 27 -341 25 -63 113
-167 158 -187 16 -6 51 -43 78 -82 104 -146 301 -279 490 -330 74 -21 103 -22
385 -23 217 0 321 4 362 13 51 12 62 11 105 -5 45 -17 109 -18 993 -20 634 -1
979 -6 1049 -14 134 -15 764 -6 836 11 40 10 59 10 100 -1 74 -21 1606 -14
1681 7 111 30 206 125 244 244 20 63 21 82 18 410 -3 337 -4 346 -26 397 -19
40 -21 55 -13 72 6 11 17 44 25 73 l13 53 229 5 c207 5 234 8 287 29 81 32
166 113 203 193 l29 63 3 335 c4 340 -1 408 -35 474 -13 26 -13 32 9 80 23 50
23 55 23 411 0 354 0 361 -23 418 -33 81 -114 166 -194 203 l-63 29 -273 3
c-252 3 -273 5 -267 20 31 76 1166 3129 1178 3167 31 99 39 172 34 312 -5 150
-20 220 -72 344 -85 201 -247 377 -439 472 -88 45 -2973 1121 -3076 1149 -84
22 -283 32 -365 19z m280 -385 c105 -28 2963 -1099 3012 -1129 209 -124 325
-368 284 -600 -7 -41 -245 -692 -620 -1699 -335 -898 -612 -1641 -616 -1650
-6 -15 -39 -17 -353 -20 -311 -3 -351 -5 -389 -22 -41 -17 -45 -17 -105 0 -55
16 -116 18 -473 21 -367 3 -419 1 -498 -15 -48 -10 -90 -16 -91 -13 -2 3 -9
48 -16 99 -26 190 7 576 65 767 l12 40 7 -30 c67 -282 252 -480 522 -556 62
-18 105 -23 199 -23 212 1 316 44 462 191 80 81 99 106 142 195 63 131 86 236
78 363 -7 111 -28 180 -112 363 -192 420 -376 958 -450 1317 -31 149 -35 161
-71 204 -37 45 -97 71 -162 71 -71 0 -100 -14 -222 -107 -303 -232 -836 -539
-1259 -727 -183 -81 -303 -187 -381 -337 -59 -114 -82 -210 -83 -349 -2 -206
45 -324 182 -460 90 -89 159 -135 261 -177 226 -91 486 -59 683 84 26 19 47
31 47 26 0 -15 -141 -257 -198 -338 -81 -117 -182 -235 -259 -302 -100 -87
-120 -109 -126 -143 -9 -44 13 -101 49 -125 17 -12 115 -52 218 -90 l187 -68
-42 -37 -43 -37 -49 53 c-31 35 -72 65 -115 86 l-67 33 -323 3 c-361 3 -389 0
-478 -61 -70 -48 -113 -111 -168 -242 -26 -63 -51 -115 -54 -115 -4 0 -57 18
-119 41 -110 41 -111 42 -118 78 -21 110 -123 230 -232 271 -46 18 -87 23
-200 28 l-142 5 -31 63 c-54 110 -72 238 -49 359 12 66 1592 4316 1641 4412
73 146 237 271 403 306 47 10 214 6 260 -7z m-1107 -393 c-7 -24 -738 -1985
-744 -1995 -3 -4 -41 11 -86 33 -115 58 -210 80 -343 80 -137 1 -222 -18 -340
-76 -160 -78 -275 -192 -360 -356 -71 -138 -90 -218 -89 -389 0 -121 3 -158
23 -227 34 -122 68 -180 306 -528 120 -176 218 -324 218 -330 0 -5 -27 -84
-61 -175 -93 -251 -97 -269 -97 -460 0 -156 9 -221 40 -301 6 -15 -13 -17
-182 -21 -106 -3 -200 -10 -216 -16 -20 -9 -40 -9 -70 -1 -23 5 -153 13 -290
16 l-247 6 2 2136 3 2136 27 81 c50 146 153 267 289 339 127 67 69 64 1198 64
970 1 1023 0 1019 -16z m2176 -5083 c92 -14 167 -49 279 -130 l92 -68 3 99 3
99 287 0 c158 0 486 3 730 7 l442 6 0 -281 0 -282 -92 0 -93 0 -97 -82 -98
-82 103 -107 102 -107 88 -1 87 -1 0 -275 0 -275 -372 -2 -373 -3 -3 -172 -2
-173 -96 0 -96 0 -89 -76 c-50 -42 -89 -80 -87 -85 2 -5 45 -54 96 -109 l93
-100 90 0 89 0 0 -280 0 -280 -730 0 -730 0 0 65 c0 36 -3 65 -6 65 -3 0 -47
-22 -97 -49 -151 -81 -162 -83 -596 -79 l-376 3 -94 38 c-51 20 -95 37 -97 37
-2 0 -4 -13 -4 -30 l0 -30 -845 0 -845 0 0 80 c0 44 -2 80 -4 80 -2 0 -46 -25
-97 -55 -152 -90 -177 -95 -478 -95 -275 0 -313 5 -411 55 -104 53 -200 159
-242 268 l-23 57 -47 0 -48 0 0 285 0 285 330 0 330 0 0 176 c0 162 -1 175
-17 170 -147 -46 -144 -46 -785 -46 l-608 0 0 285 0 285 70 0 70 0 0 150 0
150 -70 0 -70 0 0 285 0 285 573 0 c625 0 637 -1 776 -59 41 -17 75 -31 77
-31 2 0 4 20 4 45 l0 45 460 0 460 0 0 -345 0 -345 371 2 371 3 114 270 c63
149 129 304 147 345 l33 75 245 3 246 2 11 -25 c6 -14 60 -141 118 -283 59
-141 107 -258 109 -259 1 -2 42 5 91 15 l89 18 6 112 c5 103 9 118 43 187 73
147 213 246 381 268 66 9 644 6 709 -3z"/>
<path d="M5970 8943 c-69 -80 -157 -183 -197 -229 l-72 -82 -77 29 c-42 16
-78 28 -80 26 -2 -1 -19 -43 -37 -92 l-35 -90 44 -20 43 -20 -91 -105 c-50
-58 -104 -120 -119 -137 l-28 -32 -67 25 c-36 13 -68 23 -69 22 -2 -2 -19 -44
-37 -94 l-35 -91 232 -87 c128 -47 237 -86 243 -86 9 0 78 177 71 184 -2 2
-32 14 -66 26 -35 13 -63 25 -63 28 0 8 231 272 238 272 8 0 293 -107 297
-112 1 -2 5 -85 7 -186 4 -162 2 -182 -11 -176 -42 17 -102 36 -105 33 -7 -11
-68 -181 -65 -184 10 -9 464 -175 472 -172 5 1 24 43 42 93 l33 90 -79 28 -78
28 -3 184 c-2 101 0 184 3 184 4 0 23 -7 44 -16 20 -8 40 -12 43 -9 8 7 72
178 69 181 -1 2 -38 16 -82 32 l-80 30 -5 308 -5 308 -70 28 c-38 15 -77 27
-85 27 -8 0 -71 -66 -140 -146z m100 -328 c0 -63 -3 -115 -7 -115 -8 0 -145
51 -152 56 -5 4 141 174 151 174 4 0 8 -52 8 -115z"/>
<path d="M3090 8725 l0 -75 75 0 75 0 0 -405 c0 -444 0 -448 -59 -498 -69 -58
-163 -55 -226 8 -39 40 -55 93 -55 189 l0 76 60 0 60 0 0 80 0 80 -205 0 -205
0 0 -80 0 -80 59 0 59 0 4 -132 c3 -117 6 -139 27 -183 33 -66 100 -131 169
-163 51 -24 68 -27 167 -27 90 1 121 5 166 23 76 30 142 90 176 160 l28 57 5
445 5 445 83 3 82 3 0 74 0 75 -275 0 -275 0 0 -75z"/>
<path d="M6184 3769 c-59 -17 -125 -72 -158 -129 l-31 -55 0 -355 0 -355 31
-55 c34 -59 100 -112 162 -130 22 -6 180 -10 388 -10 395 0 409 2 488 71 67
59 86 107 86 217 l0 92 -135 0 -134 0 -3 -62 -3 -63 -303 -3 -302 -2 2 297 3
298 300 0 300 0 3 -67 3 -68 134 0 135 0 0 95 c0 59 -5 108 -14 129 -21 50
-78 108 -133 136 l-48 25 -370 2 c-204 1 -384 -3 -401 -8z"/>
<path d="M7500 3695 l0 -85 40 0 40 0 0 -380 0 -380 -35 0 -35 0 0 -85 0 -85
225 0 225 0 0 85 0 85 -60 0 -60 0 0 94 0 94 48 41 c26 23 49 41 52 41 6 0
234 -249 238 -261 2 -5 -10 -9 -27 -9 l-31 0 0 -85 0 -85 230 0 230 0 0 85 0
85 -32 0 c-30 0 -52 20 -228 205 -107 113 -195 210 -195 216 0 5 88 84 195
174 165 141 199 165 227 165 l33 0 0 85 0 85 -230 0 -230 0 0 -84 0 -85 32 -3
c30 -3 26 -8 -122 -133 -85 -71 -162 -136 -172 -143 -17 -13 -18 -6 -18 132
l0 146 60 0 60 0 0 85 0 85 -230 0 -230 0 0 -85z"/>
<path d="M1690 3645 l0 -95 70 0 70 0 0 -345 0 -345 -70 0 -70 0 0 -90 0 -90
498 0 c548 0 572 2 663 61 87 55 124 138 117 258 -8 133 -55 194 -182 235 -16
6 -14 11 22 49 53 58 65 100 60 206 -5 102 -29 155 -90 198 -70 48 -123 53
-625 53 l-463 0 0 -95z m879 -129 c57 -30 68 -107 22 -158 l-29 -33 -231 -3
-231 -3 0 105 0 106 220 0 c172 0 227 -3 249 -14z m82 -429 c59 -40 64 -128 8
-170 -37 -27 -156 -38 -374 -35 l-180 3 -3 113 -3 112 259 0 c253 0 260 -1
293 -23z"/>
<path d="M3130 3645 l0 -95 65 0 65 0 0 -345 0 -345 -65 0 -65 0 0 -90 0 -90
555 0 555 0 0 185 0 185 -100 0 -100 0 0 -95 0 -95 -255 0 -255 0 0 345 0 345
60 0 60 0 0 95 0 95 -260 0 -260 0 0 -95z"/>
<path d="M5004 3728 c-2 -7 -87 -206 -188 -443 l-183 -430 -76 -3 -77 -3 0
-84 0 -85 280 0 280 0 0 85 0 85 -60 0 c-33 0 -60 2 -60 4 0 2 7 20 15 40 l15
36 185 0 185 0 15 -36 c8 -20 15 -38 15 -40 0 -2 -29 -4 -65 -4 l-65 0 0 -85
0 -85 280 0 280 0 0 85 0 85 -78 0 -78 0 -185 445 -184 445 -123 0 c-89 0
-124 -3 -128 -12z m190 -482 c31 -82 56 -155 56 -162 0 -11 -27 -14 -126 -14
-69 0 -124 4 -122 8 2 5 30 81 63 170 33 89 63 158 67 154 3 -4 32 -74 62
-156z"/>
<path d="M5503 2492 c-93 -33 -154 -90 -181 -171 -17 -48 -16 -679 0 -733 17
-56 87 -131 150 -159 53 -24 55 -24 418 -24 363 0 365 0 418 24 63 28 133 103
150 159 7 21 12 76 12 121 l0 81 -140 0 -139 0 -3 -67 -3 -68 -295 0 -295 0 0
300 0 300 295 0 295 0 3 -67 3 -68 139 0 140 0 0 81 c0 45 -5 100 -12 121 -17
56 -87 131 -150 159 -52 24 -58 24 -403 26 -316 3 -355 1 -402 -15z"/>
<path d="M6750 2420 l0 -90 40 0 40 0 -2 -377 -3 -378 -37 -3 c-35 -3 -38 -5
-38 -35 0 -18 3 -56 6 -84 l7 -53 223 0 224 0 0 85 0 85 -60 0 -60 0 0 98 0
98 44 37 c25 20 49 37 55 37 11 0 241 -249 241 -261 0 -5 -13 -9 -30 -9 l-30
0 0 -85 0 -85 153 0 c85 0 188 3 230 6 l77 7 0 83 0 84 -34 0 c-30 0 -51 18
-230 204 -108 112 -196 208 -195 212 0 5 46 47 101 94 56 47 146 122 200 168
75 62 106 82 128 82 l30 0 0 85 0 85 -230 0 -230 0 0 -85 0 -85 30 0 c17 0 30
-3 29 -7 0 -5 -77 -72 -170 -151 l-169 -142 0 150 0 150 60 0 60 0 0 85 0 85
-230 0 -230 0 0 -90z"/>
<path d="M4134 2045 l-189 -445 -77 0 -78 0 0 -90 0 -90 280 0 280 0 0 90 0
89 -59 3 -59 3 13 33 14 32 189 0 189 0 10 -35 11 -35 -59 0 -59 0 0 -90 0
-90 275 0 275 0 0 90 0 90 -78 0 -78 0 -185 445 -184 445 -121 0 -121 0 -189
-445z m372 -57 l60 -163 -63 -3 c-35 -2 -91 -2 -126 0 l-64 3 61 162 c34 90
64 163 67 163 3 0 32 -73 65 -162z"/>
<path d="M3110 2395 l0 -85 70 0 70 0 0 -289 0 -290 -26 -20 c-25 -19 -40 -21
-204 -21 -164 0 -179 2 -204 21 -21 17 -26 29 -26 65 l0 44 40 0 40 0 0 85 0
85 -215 0 -215 0 0 -85 0 -85 39 0 38 0 6 -76 c9 -127 72 -224 182 -282 l50
-27 265 0 265 0 52 27 c70 37 120 89 152 157 26 56 26 57 31 371 l5 315 68 3
67 3 0 84 0 85 -275 0 -275 0 0 -85z"/>
<path d="M3860 2395 l0 -85 89 0 89 0 22 53 c13 28 29 67 37 85 l13 32 -125 0
-125 0 0 -85z"/>
<path d="M4780 2476 c0 -2 31 -78 69 -168 l68 -163 100 -3 101 -3 4 108 c3 91
8 117 31 167 15 32 27 60 27 62 0 2 -90 4 -200 4 -110 0 -200 -2 -200 -4z"/>
<path d="M5780 1955 l0 -105 110 0 110 0 0 105 0 105 -110 0 -110 0 0 -105z"/>
</g>
</svg>
